# xmcd
#
# Track frame offsets:
#	150
#	9572
#	24668
#	35809
#	47364
#	56163
#	71513
#	82012
#	96813
#	106671
#	121576
#	132971
#	145194
#	154259
#
# Disc length: 2248 seconds
#
# Revision: 0
# Processed by: cddbd v1.5.2PL0 Copyright (c) Steve Scherf et al.
# Submitted via: EasyCDDAExtractor 10.2.0.1
#
DISCID=b508c60e
DTITLE=Bluegrass Patriots - Kneel At The Cross
DYEAR=2004
DGENRE=Gospel
TTITLE0=Lord, Lift Me Up
TTITLE1=Six Hours On The Cross
TTITLE2=Enter The Gates
TTITLE3=Kneel At The Cross
TTITLE4=He Said If I Be Lifted Up
TTITLE5=Just As The Sun Went Down
TTITLE6=Eat At The Welcome Trail
TTITLE7=Bouquet In Heaven
TTITLE8=Fear Not
TTITLE9=I Saw Mother With God Last Night
TTITLE10=High Country
TTITLE11=When The Roll Is Called Up Yonder
TTITLE12=The Captain
TTITLE13=Just As I Am/Country Boy
EXTD=
EXTT0=
EXTT1=
EXTT2=
EXTT3=
EXTT4=
EXTT5=
EXTT6=
EXTT7=
EXTT8=
EXTT9=
EXTT10=
EXTT11=
EXTT12=
EXTT13=
PLAYORDER=
